<svg width="153" height="27" viewBox="0 0 153 27" fill="none" xmlns="http://www.w3.org/2000/svg">
<path d="M37.9292 22.048C36.5372 22.048 35.7852 21.824 35.6732 21.376L34.8812 18.28H31.0652L30.3692 21.256C30.2732 21.752 29.5052 22 28.0652 22C27.2972 22 26.7292 21.96 26.3612 21.88C25.9932 21.784 25.8092 21.712 25.8092 21.664L30.0572 5.416C30.0572 5.288 31.1532 5.224 33.3452 5.224C35.5372 5.224 36.6332 5.288 36.6332 5.416L40.7852 21.688C40.7852 21.8 40.4172 21.888 39.6812 21.952C38.9452 22.016 38.3612 22.048 37.9292 22.048ZM31.6652 15.232H34.1852L33.1052 10.264H32.9612L31.6652 15.232ZM54.1598 9.544C54.1598 11.208 53.4398 12.472 51.9998 13.336C52.7838 13.624 53.4398 14.12 53.9678 14.824C54.4958 15.528 54.7598 16.528 54.7598 17.824C54.7598 19.104 54.2798 20.12 53.3198 20.872C52.3758 21.624 51.0158 22 49.2398 22H43.5758C43.3038 22 43.0798 21.912 42.9038 21.736C42.7278 21.544 42.6398 21.296 42.6398 20.992V5.632C42.6398 5.456 42.6638 5.344 42.7118 5.296C42.7758 5.232 42.8958 5.2 43.0718 5.2H48.5438C52.2878 5.2 54.1598 6.648 54.1598 9.544ZM47.2478 9.088V12.232H47.3678C48.9038 12.232 49.6718 11.72 49.6718 10.696C49.6718 10.136 49.5198 9.728 49.2158 9.472C48.9278 9.216 48.4398 9.088 47.7518 9.088H47.2478ZM47.2478 15.064V18.184H47.6798C48.3678 18.184 48.8718 18.056 49.1918 17.8C49.5118 17.544 49.6718 17.136 49.6718 16.576C49.6718 16.016 49.5198 15.624 49.2158 15.4C48.9278 15.176 48.4398 15.064 47.7518 15.064H47.2478ZM63.4898 4.984C64.6578 4.984 65.6818 5.152 66.5618 5.488C67.4578 5.808 67.9058 6.248 67.9058 6.808C67.9058 7.368 67.6898 8.064 67.2578 8.896C66.8418 9.712 66.4898 10.12 66.2018 10.12C66.1218 10.12 66.0258 10.08 65.9138 10C65.8178 9.904 65.5778 9.808 65.1938 9.712C64.8258 9.6 64.5058 9.544 64.2338 9.544C63.3058 9.544 62.5538 9.872 61.9778 10.528C61.4178 11.184 61.1378 12.192 61.1378 13.552C61.1378 14.896 61.4258 15.896 62.0018 16.552C62.5938 17.208 63.3378 17.536 64.2338 17.536C64.6018 17.536 65.0098 17.488 65.4578 17.392C65.9218 17.28 66.2498 17.128 66.4418 16.936C66.4738 16.904 66.5378 16.888 66.6338 16.888C66.7298 16.888 66.9058 17.072 67.1618 17.44C67.4338 17.792 67.6818 18.264 67.9058 18.856C68.1298 19.432 68.2418 19.88 68.2418 20.2C68.2418 20.824 67.7618 21.32 66.8018 21.688C65.8418 22.056 64.7058 22.24 63.3938 22.24C61.2818 22.24 59.5458 21.496 58.1858 20.008C56.8258 18.52 56.1458 16.424 56.1458 13.72C56.1458 11 56.8418 8.864 58.2338 7.312C59.6418 5.76 61.3938 4.984 63.4898 4.984ZM79.1863 21.664C79.1863 21.92 78.4263 22.048 76.9063 22.048C75.3703 22.048 74.6023 21.928 74.6023 21.688V6.04C74.6023 5.48 74.8983 5.2 75.4903 5.2H80.0743C84.2823 5.2 86.3863 6.84 86.3863 10.12C86.3863 11.112 86.1943 12.016 85.8103 12.832C85.4263 13.632 84.8823 14.272 84.1783 14.752L87.2023 19.792C87.0743 20.176 86.6583 20.616 85.9543 21.112C84.9943 21.8 84.2023 22.144 83.5783 22.144C82.9543 22.144 82.4903 21.92 82.1863 21.472L79.9303 16.216H79.1863V21.664ZM79.1863 9.448V13.048H79.3063C80.8263 13.048 81.5863 12.416 81.5863 11.152C81.5863 10.576 81.4343 10.152 81.1303 9.88C80.8423 9.592 80.3623 9.448 79.6903 9.448H79.1863ZM96.5586 11.872C96.8626 11.872 97.0146 12.432 97.0146 13.552C97.0146 13.888 96.9746 14.288 96.8946 14.752C96.8306 15.2 96.7026 15.424 96.5106 15.424H93.4626V17.824H97.8786C98.1506 17.824 98.3346 18.176 98.4306 18.88C98.4786 19.184 98.5026 19.512 98.5026 19.864C98.5026 20.2 98.4546 20.64 98.3586 21.184C98.2626 21.728 98.1026 22 97.8786 22H89.6706C89.0626 22 88.7586 21.752 88.7586 21.256V5.824C88.7586 5.408 88.9426 5.2 89.3106 5.2H97.9026C98.2386 5.2 98.4066 5.912 98.4066 7.336C98.4066 8.744 98.2386 9.448 97.9026 9.448H93.4626V11.872H96.5586ZM113.747 21.472C113.747 21.808 112.995 21.976 111.491 21.976C109.987 21.976 109.171 21.856 109.043 21.616L105.035 14.128V21.592C105.035 21.88 104.291 22.024 102.803 22.024C101.331 22.024 100.595 21.88 100.595 21.592V5.536C100.595 5.296 101.227 5.176 102.491 5.176C102.987 5.176 103.563 5.224 104.219 5.32C104.891 5.4 105.299 5.56 105.443 5.8L109.283 13.192V5.656C109.283 5.352 110.027 5.2 111.515 5.2C113.003 5.2 113.747 5.352 113.747 5.656V21.472ZM123.381 21.616C123.381 21.936 122.589 22.096 121.005 22.096C119.421 22.096 118.629 21.936 118.629 21.616V9.568H115.749C115.477 9.568 115.285 9.2 115.173 8.464C115.125 8.112 115.101 7.752 115.101 7.384C115.101 7.016 115.125 6.656 115.173 6.304C115.285 5.568 115.477 5.2 115.749 5.2H126.189C126.461 5.2 126.653 5.568 126.765 6.304C126.813 6.656 126.837 7.016 126.837 7.384C126.837 7.752 126.813 8.112 126.765 8.464C126.653 9.2 126.461 9.568 126.189 9.568H123.381V21.616ZM138.875 22.048C137.483 22.048 136.731 21.824 136.619 21.376L135.827 18.28H132.011L131.315 21.256C131.219 21.752 130.451 22 129.011 22C128.243 22 127.675 21.96 127.307 21.88C126.939 21.784 126.755 21.712 126.755 21.664L131.003 5.416C131.003 5.288 132.099 5.224 134.291 5.224C136.483 5.224 137.579 5.288 137.579 5.416L141.731 21.688C141.731 21.8 141.363 21.888 140.627 21.952C139.891 22.016 139.307 22.048 138.875 22.048ZM132.611 15.232H135.131L134.051 10.264H133.907L132.611 15.232ZM143.081 20.584V5.656C143.081 5.32 143.889 5.152 145.505 5.152C147.137 5.152 147.953 5.32 147.953 5.656V17.416H151.649C151.937 17.416 152.137 17.792 152.249 18.544C152.297 18.912 152.321 19.288 152.321 19.672C152.321 20.056 152.297 20.448 152.249 20.848C152.121 21.616 151.913 22 151.625 22H144.233C143.881 22 143.601 21.856 143.393 21.568C143.185 21.28 143.081 20.952 143.081 20.584Z" fill="#0088FF"/>
<circle cx="8.5" cy="13.5" r="6" stroke="#0088FF" stroke-width="5"/>
</svg>
